<svg width="48" height="48" viewBox="0 0 48 48" fill="none" xmlns="http://www.w3.org/2000/svg">
<rect width="48" height="48" rx="8" fill="white"/>
<path d="M23.4514 34.3317L17.2812 34.3172L29.6507 13.668H33.5091C34.2397 13.668 34.8319 14.2602 34.8319 14.9907V23.2389H34.1307V20.0295C34.1307 19.5455 33.7384 19.1532 33.2545 19.1532C32.9498 19.1532 32.667 19.3115 32.5076 19.5712L23.4514 34.3317Z" fill="#FD5F08"/>
<path d="M29.6758 29.586C32.4411 29.3078 34.0682 27.759 34.53 24.8828C35.0199 27.7271 36.6987 29.2464 39.4921 29.586C36.8922 29.8401 35.2197 31.372 34.5839 34.3324C34.1719 31.439 32.5002 29.9024 29.6758 29.586Z" fill="black"/>
<path d="M14.6779 34.3317L8.50781 34.3172L20.8773 13.668H24.7357C25.4662 13.668 26.0584 14.2602 26.0584 14.9907V23.2389H25.3573V20.0295C25.3573 19.5455 24.965 19.1532 24.4811 19.1532C24.1764 19.1532 23.8936 19.3115 23.7342 19.5712L14.6779 34.3317Z" fill="#FD5F08"/>
</svg>
