<svg width="117" height="48" viewBox="0 0 117 48" fill="none" xmlns="http://www.w3.org/2000/svg">
<rect width="48" height="48" rx="8" fill="white"/>
<path d="M23.4514 34.3317L17.2812 34.3172L29.6507 13.668H33.5091C34.2397 13.668 34.8319 14.2602 34.8319 14.9907V23.2389H34.1307V20.0295C34.1307 19.5455 33.7384 19.1532 33.2545 19.1532C32.9498 19.1532 32.667 19.3115 32.5076 19.5712L23.4514 34.3317Z" fill="#FD5F08"/>
<path d="M29.6758 29.586C32.4411 29.3078 34.0682 27.759 34.53 24.8828C35.0199 27.7271 36.6987 29.2464 39.4921 29.586C36.8922 29.8401 35.2197 31.372 34.5839 34.3324C34.1719 31.439 32.5002 29.9024 29.6758 29.586Z" fill="black"/>
<path d="M14.6779 34.3317L8.50781 34.3172L20.8773 13.668H24.7357C25.4662 13.668 26.0584 14.2602 26.0584 14.9907V23.2389H25.3573V20.0295C25.3573 19.5455 24.965 19.1532 24.4811 19.1532C24.1764 19.1532 23.8936 19.3115 23.7342 19.5712L14.6779 34.3317Z" fill="#FD5F08"/>
<path d="M63.616 8.8C65.2 8.8 66.496 10.096 66.496 11.68L66.48 20H63.92V15.664C63.824 15.68 63.728 15.68 63.616 15.68H59.616C59.504 15.68 59.392 15.68 59.28 15.664V20H56.72V11.68C56.72 10.096 58.016 8.8 59.6 8.8H63.616ZM63.616 13.12C63.776 13.12 63.92 13.008 63.92 12.864V11.68C63.92 11.504 63.792 11.36 63.6 11.36H59.616C59.44 11.36 59.296 11.504 59.296 11.68V12.8C59.296 12.976 59.44 13.12 59.616 13.12H63.616ZM74.8348 8.8C76.4188 8.8 77.7148 10.096 77.7148 11.68L77.6988 20H75.1388V15.664C75.0428 15.68 74.9468 15.68 74.8348 15.68H70.8348C70.7228 15.68 70.6108 15.68 70.4988 15.664V20H67.9388V11.68C67.9388 10.096 69.2348 8.8 70.8188 8.8H74.8348ZM74.8348 13.12C74.9948 13.12 75.1388 13.008 75.1388 12.864V11.68C75.1388 11.504 75.0108 11.36 74.8188 11.36H70.8348C70.6588 11.36 70.5148 11.504 70.5148 11.68V12.8C70.5148 12.976 70.6588 13.12 70.8348 13.12H74.8348ZM84.5101 17.36L86.9101 8.8H89.5661L86.9741 18.064C86.6221 19.296 85.4861 20.16 84.2061 20.16H83.6141C82.3341 20.16 81.1981 19.296 80.8461 18.064L78.2541 8.8H80.9101L83.3101 17.36C83.3421 17.504 83.4701 17.6 83.6141 17.6H84.2061C84.3501 17.6 84.4781 17.504 84.5101 17.36ZM90.5344 8.8H93.0944V20H90.5344V8.8ZM101.411 8.8C102.995 8.8 104.291 10.096 104.291 11.68V12.64H101.731V11.68C101.731 11.504 101.587 11.36 101.411 11.36H97.4106C97.2346 11.36 97.0906 11.504 97.0906 11.68V11.872C97.0906 12.016 97.1706 12.128 97.2986 12.176L102.483 14.256C103.587 14.688 104.291 15.744 104.291 16.928V17.12C104.291 18.704 102.995 20 101.411 20H97.4106C95.8266 20 94.5306 18.704 94.5306 17.12V16.16H97.0906V17.12C97.0906 17.296 97.2346 17.44 97.4106 17.44H101.411C101.587 17.44 101.731 17.296 101.731 17.12V16.928C101.731 16.784 101.651 16.672 101.523 16.624L96.3386 14.544C95.2346 14.112 94.5306 13.056 94.5306 11.872V11.68C94.5306 10.096 95.8266 8.8 97.4106 8.8H101.411ZM112.938 12.8V8.8H115.498V20H112.938V16C112.938 15.824 112.794 15.68 112.618 15.68H108.618C108.442 15.68 108.298 15.824 108.298 16V20H105.738V8.8H108.298V12.8C108.298 12.976 108.442 13.12 108.618 13.12H112.618C112.794 13.12 112.938 12.976 112.938 12.8ZM63.616 24.8C65.2 24.8 66.496 26.096 66.496 27.68L66.48 36H63.92V31.664C63.824 31.68 63.728 31.68 63.616 31.68H59.616C59.504 31.68 59.392 31.68 59.28 31.664V36H56.72V27.68C56.72 26.096 58.016 24.8 59.6 24.8H63.616ZM63.616 29.12C63.776 29.12 63.92 29.008 63.92 28.864V27.68C63.92 27.504 63.792 27.36 63.6 27.36H59.616C59.44 27.36 59.296 27.504 59.296 27.68V28.8C59.296 28.976 59.44 29.12 59.616 29.12H63.616ZM68.0188 24.8H70.5788V36H68.0188V24.8ZM77.8581 33.12C77.8581 33.296 78.0021 33.44 78.1781 33.44H85.0741V36H78.1781C76.5941 36 75.2981 34.704 75.2981 33.12V24.8H77.8581V33.12ZM93.0066 24.8C94.5906 24.8 95.8866 26.096 95.8866 27.68L95.8706 36H93.3106V31.664C93.2146 31.68 93.1186 31.68 93.0066 31.68H89.0066C88.8946 31.68 88.7826 31.68 88.6706 31.664V36H86.1106V27.68C86.1106 26.096 87.4066 24.8 88.9906 24.8H93.0066ZM93.0066 29.12C93.1666 29.12 93.3106 29.008 93.3106 28.864V27.68C93.3106 27.504 93.1826 27.36 92.9906 27.36H89.0066C88.8306 27.36 88.6866 27.504 88.6866 27.68V28.8C88.6866 28.976 88.8306 29.12 89.0066 29.12H93.0066ZM104.289 24.8C105.873 24.8 107.169 26.096 107.169 27.68V28.8C107.169 29.392 106.977 29.936 106.673 30.4C106.977 30.864 107.169 31.408 107.169 32V33.12C107.169 34.704 105.873 36 104.289 36H97.4094V24.8H104.289ZM99.9694 27.36V28.8C99.9694 28.976 100.113 29.12 100.289 29.12H104.289C104.465 29.12 104.609 28.976 104.609 28.8V27.68C104.609 27.504 104.465 27.36 104.289 27.36H99.9694ZM104.609 33.12V32C104.609 31.824 104.465 31.68 104.289 31.68H100.289C100.113 31.68 99.9694 31.824 99.9694 32V33.44H104.289C104.465 33.44 104.609 33.296 104.609 33.12Z" fill="white"/>
</svg>
